HIERARCHY
ROOT Hips
{
	OFFSET 54.108299 -36.457817 94.234489
	CHANNELS 6 Xposition Yposition Zposition Xrotation Yrotation Zrotation
	JOINT spine
	{
		OFFSET 0.000000 -0.448574 7.800591
		CHANNELS 3 Xrotation Yrotation Zrotation
		JOINT spine1
		{
			OFFSET 0.000000 -0.000004 10.136398
			CHANNELS 3 Xrotation Yrotation Zrotation
			JOINT spine2
			{
				OFFSET 0.000000 0.000000 9.712509
				CHANNELS 3 Xrotation Yrotation Zrotation
				JOINT Neck
				{
					OFFSET 0.000000 -1.188873 24.936111
					CHANNELS 3 Xrotation Yrotation Zrotation
					JOINT Head
					{
						OFFSET 0.000000 -0.000004 7.533844
						CHANNELS 3 Xrotation Yrotation Zrotation
						End Site
						{
							OFFSET 0.000000 6.014019 18.236099
						}
					}
				}
				JOINT RightShoulder
				{
					OFFSET -4.089649 0.569454 10.488815
					CHANNELS 3 Xrotation Yrotation Zrotation
					JOINT RightArm
					{
						OFFSET 0.000000 0.000000 13.757004
						CHANNELS 3 Xrotation Yrotation Zrotation
						JOINT RightArmRoll
						{
							OFFSET 0.000000 -0.000004 6.944778
							CHANNELS 3 Xrotation Yrotation Zrotation
							JOINT RightForeArm
							{
								OFFSET 0.000000 0.000000 20.227692
								CHANNELS 3 Xrotation Yrotation Zrotation
								JOINT RightForeArmRoll
								{
									OFFSET 0.000000 -0.000004 7.793121
									CHANNELS 3 Xrotation Yrotation Zrotation
									JOINT RightHand
									{
										OFFSET 0.000000 0.000000 15.639099
										CHANNELS 3 Xrotation Yrotation Zrotation
										End Site
										{
											OFFSET 0.000000 0.000000 0.100006
										}
									}
								}
							}
						}
					}
				}
				JOINT LeftShoulder
				{
					OFFSET 4.089649 0.569454 10.488815
					CHANNELS 3 Xrotation Yrotation Zrotation
					JOINT LeftArm
					{
						OFFSET 0.000000 0.000000 13.757004
						CHANNELS 3 Xrotation Yrotation Zrotation
						JOINT LeftArmRoll
						{
							OFFSET 0.000000 -0.000004 6.944778
							CHANNELS 3 Xrotation Yrotation Zrotation
							JOINT LeftForeArm
							{
								OFFSET 0.000000 0.000000 20.227692
								CHANNELS 3 Xrotation Yrotation Zrotation
								JOINT LeftForeArmRoll
								{
									OFFSET 0.000000 -0.000004 7.793121
									CHANNELS 3 Xrotation Yrotation Zrotation
									JOINT LeftHand
									{
										OFFSET 0.000000 0.000000 15.639099
										CHANNELS 3 Xrotation Yrotation Zrotation
										End Site
										{
											OFFSET 0.000000 0.000000 0.100006
										}
									}
								}
							}
						}
					}
				}
			}
		}
	}
	JOINT RightUpLeg
	{
		OFFSET -6.914162 1.063580 -1.267883
		CHANNELS 3 Xrotation Yrotation Zrotation
		JOINT RightUpLegRoll
		{
			OFFSET 0.000000 -0.000004 18.337799
			CHANNELS 3 Xrotation Yrotation Zrotation
			JOINT RightLeg
			{
				OFFSET 0.000000 0.000004 -22.708496
				CHANNELS 3 Xrotation Yrotation Zrotation
				JOINT RightLegRoll
				{
					OFFSET 0.000000 -0.000004 22.782799
					CHANNELS 3 Xrotation Yrotation Zrotation
					JOINT RightFoot
					{
						OFFSET 0.000000 -0.000004 18.962906
						CHANNELS 3 Xrotation Yrotation Zrotation
						JOINT RightToeBase
						{
							OFFSET 0.000000 0.000000 15.852005
							CHANNELS 3 Xrotation Yrotation Zrotation
							End Site
							{
								OFFSET 0.006718 0.884888 7.677002
							}
						}
					}
				}
			}
		}
	}
	JOINT LeftUpLeg
	{
		OFFSET 6.914162 1.063580 -1.267883
		CHANNELS 3 Xrotation Yrotation Zrotation
		JOINT LeftUpLegRoll
		{
			OFFSET 0.000000 -0.000004 18.337898
			CHANNELS 3 Xrotation Yrotation Zrotation
			JOINT LeftLeg
			{
				OFFSET 0.000000 -0.000004 22.708405
				CHANNELS 3 Xrotation Yrotation Zrotation
				JOINT LeftLegRoll
				{
					OFFSET 0.000000 -0.000004 22.993408
					CHANNELS 3 Xrotation Yrotation Zrotation
					JOINT LeftFoot
					{
						OFFSET 0.000000 -0.000004 18.752197
						CHANNELS 3 Xrotation Yrotation Zrotation
						JOINT LeftToeBase
						{
							OFFSET 0.000000 0.000000 15.852005
							CHANNELS 3 Xrotation Yrotation Zrotation
							End Site
							{
								OFFSET -0.030113 0.884888 7.677002
							}
						}
					}
				}
			}
		}
	}
}
MOTION
Frames: 12
Frame Time: 0.041667
49.535000 -7.567068 54.876980 17.109235 5.622730 14.438627 5.480105 -1.226956 -0.535806 14.956270 -2.500334 -0.938844 16.601914 -2.511403 -0.908810 -38.054792 23.549901 -2.145735 -1.191062 -15.842948 -12.718205 -17.824429 -30.056575 -20.841007 -39.058375 -145.305048 -94.277928 -0.000008 0.000005 -0.000009 67.154522 -10.600725 6.747057 0.000015 0.000008 -3.000000 -4.999723 -7.998730 -0.000022 -20.990307 39.596423 25.149250 -60.775973 128.281826 118.155729 0.000001 -0.000002 -0.000001 80.474477 3.346948 5.161044 0.000018 0.000002 2.999980 -5.000405 7.998943 -0.000141 -100.484500 -181.714874 -0.751665 -179.999991 0.000004 -0.790999 75.105416 5.074019 3.407586 -0.000006 -0.000002 1.883351 85.506756 4.560624 10.460713 25.456957 -7.355614 -0.000002 -102.666110 174.131793 -6.806345 -0.000020 0.000001 -1.634791 -102.505095 -2.791793 -2.080941 -0.000004 0.000002 -3.266131 82.564303 -7.475327 1.497165 26.079436 7.353720 -0.079725 
49.536499 -7.614044 54.972698 17.277155 5.650116 14.424748 5.458599 -1.220282 -0.541331 14.913083 -2.487595 -0.951012 16.558802 -2.498810 -0.921125 -38.296536 23.463103 -2.095149 -1.081897 -15.781529 -12.669973 -17.834884 -30.127100 -20.856573 -39.088988 -145.342095 -94.283358 -0.000005 0.000004 -0.000008 66.973290 -10.673368 6.798933 0.000016 0.000008 -3.000002 -4.999727 -7.998728 -0.000021 -21.013635 39.641206 25.179735 -60.834917 128.183594 118.272170 0.000002 -0.000003 0.000001 80.538346 3.294545 5.216225 0.000023 0.000003 2.999983 -5.000405 7.998941 -0.000139 -100.491959 -181.716992 -0.768232 -179.999991 0.000004 -0.790002 75.231836 5.061540 3.381173 -0.000009 -0.000002 1.885832 85.546822 4.567505 10.440087 25.456959 -7.355615 -0.000003 -102.674532 174.133050 -6.775854 -0.000020 -0.000001 -1.628469 -102.403715 -2.767077 -2.046736 -0.000005 0.000003 -3.262030 82.584138 -7.464597 1.459865 26.106813 7.353710 -0.083255 
49.552204 -7.656284 55.070587 17.437949 5.677042 14.408182 5.438023 -1.214181 -0.545929 14.871805 -2.475960 -0.961237 16.517513 -2.487302 -0.931494 -38.528493 23.385243 -2.046764 -0.980658 -15.727912 -12.625954 -17.843499 -30.191335 -20.869448 -39.118860 -145.381697 -94.285468 -0.000005 0.000005 -0.000006 66.788561 -10.746964 6.850725 0.000018 0.000008 -2.999999 -4.999727 -7.998730 -0.000018 -21.032791 39.685387 25.204604 -60.883159 128.096031 118.370047 -0.000001 -0.000002 0.000000 80.591649 3.251229 5.262212 0.000019 0.000002 2.999982 -5.000402 7.998942 -0.000140 -100.492102 -181.722934 -0.781390 -179.999991 0.000004 -0.789005 75.357819 5.048556 3.354639 -0.000008 -0.000003 1.888611 85.587980 4.574891 10.417220 25.456959 -7.355615 -0.000002 -102.673043 174.130277 -6.748624 -0.000021 -0.000002 -1.622411 -102.297594 -2.740680 -2.008309 -0.000005 0.000002 -3.257741 82.613276 -7.455450 1.430569 26.124493 7.353688 -0.085532 
49.520103 -7.710640 55.195492 17.591405 5.703422 14.388989 5.418397 -1.208716 -0.549410 14.832543 -2.465580 -0.969137 16.478234 -2.477023 -0.939515 -38.749647 23.317559 -2.000743 -0.888305 -15.683007 -12.586938 -17.850332 -30.248401 -20.879721 -39.146399 -145.424167 -94.281834 -0.000004 0.000003 -0.000007 66.600539 -10.821494 6.902527 0.000015 0.000007 -3.000001 -4.999725 -7.998730 -0.000018 -21.047238 39.728075 25.223105 -60.920636 128.020694 118.449605 0.000002 -0.000002 0.000002 80.633102 3.218311 5.297429 0.000021 0.000000 2.999980 -5.000401 7.998941 -0.000141 -100.484985 -181.733056 -0.791978 -179.999991 0.000003 -0.787994 75.483221 5.034953 3.328086 -0.000007 -0.000003 1.891741 85.630218 4.582934 10.392041 25.456959 -7.355615 -0.000002 -102.661151 174.123146 -6.726749 -0.000020 -0.000002 -1.616680 -102.186214 -2.712066 -1.966561 -0.000003 0.000004 -3.253240 82.653034 -7.448145 1.410639 26.130960 7.353694 -0.086376 
49.549801 -7.756062 55.292091 17.737241 5.729864 14.365437 5.399863 -1.203924 -0.552070 14.795407 -2.456576 -0.975314 16.441085 -2.468090 -0.945804 -38.962643 23.259960 -1.954958 -0.803761 -15.647537 -12.551301 -17.854654 -30.298207 -20.886457 -39.174297 -145.471473 -94.277579 -0.000008 0.000005 -0.000005 66.406781 -10.897429 6.954594 0.000016 0.000009 -3.000002 -4.999728 -7.998730 -0.000020 -21.057914 39.771488 25.236717 -60.947404 127.951901 118.510202 0.000001 -0.000003 0.000000 80.666467 3.192660 5.325391 0.000021 0.000003 2.999983 -5.000403 7.998940 -0.000144 -100.469781 -181.748451 -0.798580 -179.999991 0.000005 -0.787994 75.608808 5.020488 3.301246 -0.000006 -0.000002 1.895211 85.673508 4.591669 10.363934 25.456955 -7.355615 -0.000002 -102.638250 174.110073 -6.707190 -0.000020 -0.000001 -1.611179 -102.068995 -2.681581 -1.921531 -0.000004 0.000002 -3.248530 82.704486 -7.442411 1.399770 26.125600 7.353694 -0.085700 
49.509903 -7.823013 55.391190 17.875874 5.756835 14.336839 5.382494 -1.199688 -0.554368 14.760585 -2.448816 -0.980661 16.406256 -2.460395 -0.951237 -39.171152 23.211016 -1.907302 -0.725109 -15.621213 -12.517064 -17.856140 -30.342258 -20.888902 -39.205648 -145.525718 -94.277798 -0.000006 0.000004 -0.000006 66.204860 -10.975365 7.007527 0.000015 0.000007 -3.000000 -4.999723 -7.998730 -0.000023 -21.066469 39.817780 25.247253 -60.969151 127.881495 118.557823 0.000001 -0.000003 0.000002 80.696219 3.170314 5.350033 0.000020 0.000002 2.999979 -5.000401 7.998939 -0.000143 -100.446094 -181.769516 -0.800109 -179.999991 0.000006 -0.787994 75.735794 5.005020 3.273652 -0.000008 -0.000002 1.898950 85.717631 4.601005 10.333114 25.456957 -7.355618 -0.000002 -102.604345 174.090525 -6.689187 -0.000020 -0.000000 -1.605769 -101.946427 -2.649798 -1.872302 -0.000005 0.000003 -3.243610 82.766600 -7.437920 1.395609 26.109537 7.353699 -0.083644 
49.531509 -7.865017 55.496193 18.007502 5.784115 14.303751 5.366212 -1.195967 -0.556313 14.727980 -2.442161 -0.985227 16.373639 -2.453790 -0.955885 -39.375098 23.169706 -1.858117 -0.652062 -15.603041 -12.484092 -17.854903 -30.381129 -20.887552 -39.240219 -145.585878 -94.281978 -0.000008 0.000004 -0.000007 65.995467 -11.055337 7.061167 0.000017 0.000008 -3.000002 -4.999730 -7.998727 -0.000024 -21.072563 39.866820 25.254461 -60.984369 127.811131 118.590717 0.000001 -0.000000 -0.000001 80.721764 3.151431 5.371391 0.000023 0.000000 2.999978 -5.000405 7.998940 -0.000143 -100.414088 -181.795580 -0.797166 -179.999991 0.000002 -0.789005 75.864113 4.988647 3.245519 -0.000007 -0.000003 1.902953 85.762546 4.610899 10.299873 25.456957 -7.355617 -0.000002 -102.560147 174.065267 -6.673113 -0.000020 -0.000001 -1.600461 -101.818900 -2.616805 -1.820906 -0.000005 0.000002 -3.238519 82.838078 -7.434433 1.397495 26.084081 7.353715 -0.080386 
49.533005 -7.914089 55.603298 18.132709 5.811472 14.266901 5.350959 -1.192681 -0.557928 14.697385 -2.436455 -0.989066 16.343137 -2.448128 -0.959794 -39.574249 23.135312 -1.807646 -0.584335 -15.592229 -12.452466 -17.851196 -30.415550 -20.882545 -39.277570 -145.651762 -94.288842 -0.000007 0.000005 -0.000006 65.779243 -11.137281 7.115455 0.000016 0.000005 -2.999997 -4.999724 -7.998730 -0.000023 -21.076514 39.918248 25.258731 -60.994860 127.740903 118.611440 0.000004 -0.000003 0.000002 80.742630 3.136195 5.388877 0.000020 0.000001 2.999979 -5.000405 7.998941 -0.000146 -100.374240 -181.825947 -0.791425 -179.999991 0.000005 -0.789005 75.993716 4.971562 3.216889 -0.000007 -0.000002 1.907151 85.808213 4.621250 10.264814 25.456955 -7.355616 -0.000003 -102.506297 174.035092 -6.658319 -0.000020 -0.000001 -1.595239 -101.687091 -2.582763 -1.767376 -0.000002 0.000002 -3.233258 82.917595 -7.431763 1.404745 26.050644 7.353735 -0.076103 
49.536209 -7.965981 55.707092 18.251594 5.838704 14.227056 5.336673 -1.189782 -0.559228 14.668805 -2.431559 -0.992224 16.314446 -2.443274 -0.963012 -39.768414 23.106870 -1.756612 -0.521632 -15.587788 -12.422075 -17.845251 -30.446296 -20.874422 -39.317482 -145.722345 -94.297872 -0.000006 0.000005 -0.000007 65.557105 -11.221058 7.170087 0.000018 0.000007 -3.000000 -4.999725 -7.998730 -0.000021 -21.077959 39.971841 25.259556 -61.000208 127.671959 118.619417 0.000002 -0.000005 0.000002 80.758340 3.124797 5.402228 0.000018 0.000000 2.999979 -5.000405 7.998941 -0.000141 -100.326709 -181.859907 -0.783618 -179.999991 0.000004 -0.790002 76.124466 4.953917 3.187876 -0.000009 -0.000003 1.911550 85.854556 4.631999 10.228032 25.456959 -7.355616 -0.000002 -102.443528 174.000913 -6.644889 -0.000019 -0.000002 -1.590099 -101.551355 -2.547971 -1.711772 -0.000003 0.000002 -3.227840 83.003717 -7.429797 1.416182 26.010636 7.353748 -0.070971 
49.528000 -8.019520 55.813202 18.364550 5.865602 14.184948 5.323285 -1.187199 -0.560236 14.642034 -2.427317 -0.994745 16.287672 -2.439066 -0.965589 -39.957372 23.083678 -1.705083 -0.463684 -15.588916 -12.393015 -17.837444 -30.473972 -20.863554 -39.359942 -145.796685 -94.308773 -0.000007 0.000005 -0.000006 65.329701 -11.306617 7.225118 0.000016 0.000006 -3.000001 -4.999724 -7.998731 -0.000019 -21.076987 40.027484 25.257162 -61.000256 127.605651 118.614609 0.000004 -0.000001 0.000000 80.768408 3.117350 5.411243 0.000021 0.000000 2.999982 -5.000409 7.998940 -0.000144 -100.271958 -181.896790 -0.772505 -179.999991 0.000004 -0.790999 76.256262 4.935831 3.158808 -0.000008 -0.000002 1.916112 85.901623 4.643005 10.190119 25.456959 -7.355616 -0.000002 -102.372542 173.963416 -6.631375 -0.000020 0.000001 -1.585031 -101.412408 -2.512384 -1.654088 -0.000004 0.000002 -3.222278 83.095023 -7.428424 1.431213 25.965278 7.353767 -0.065155 
49.540703 -8.071825 55.923588 18.471979 5.891963 14.141113 5.310716 -1.184862 -0.560973 14.616864 -2.423597 -0.996682 16.262496 -2.435366 -0.967570 -40.140926 23.064784 -1.653711 -0.410198 -15.594621 -12.365177 -17.828039 -30.499435 -20.850397 -39.404502 -145.874604 -94.320275 -0.000008 0.000004 -0.000007 65.097748 -11.393830 7.280122 0.000016 0.000006 -2.999999 -4.999728 -7.998730 -0.000019 -21.073719 40.084666 25.251565 -60.995529 127.542486 118.597779 0.000001 -0.000003 0.000001 80.772192 3.114126 5.415684 0.000021 0.000002 2.999979 -5.000404 7.998941 -0.000142 -100.210165 -181.935940 -0.760029 -179.999991 0.000005 -0.791997 76.389095 4.917473 3.129507 -0.000006 -0.000002 1.920791 85.949407 4.654111 10.151279 25.456957 -7.355615 -0.000002 -102.293790 173.923527 -6.620178 -0.000019 0.000001 -1.580029 -101.270750 -2.476119 -1.596363 -0.000005 0.000002 -3.216610 83.190215 -7.427462 1.449073 25.915978 7.353780 -0.058839 
49.550804 -8.138397 56.026279 18.574066 5.917619 14.096408 5.298918 -1.182725 -0.561455 14.593305 -2.420237 -0.998069 16.238934 -2.432028 -0.968998 -40.319030 23.049382 -1.602886 -0.360899 -15.604008 -12.338779 -17.817278 -30.523327 -20.835373 -39.450828 -145.955023 -94.331797 -0.000004 0.000003 -0.000006 64.862106 -11.482631 7.335282 0.000016 0.000008 -3.000000 -4.999724 -7.998730 -0.000019 -21.067836 40.143344 25.242554 -60.985694 127.483705 118.568587 0.000000 -0.000003 0.000002 80.769193 3.115272 5.415152 0.000022 0.000002 2.999979 -5.000408 7.998940 -0.000143 -100.141624 -181.976621 -0.746986 -179.999991 0.000006 -0.794004 76.522783 4.899014 3.100299 -0.000009 -0.000003 1.925580 85.997799 4.665340 10.112001 25.456957 -7.355616 -0.000003 -102.208126 173.882068 -6.608430 -0.000021 0.000001 -1.575099 -101.126900 -2.439501 -1.537668 -0.000003 0.000002 -3.210820 83.287805 -7.426792 1.468669 25.864045 7.353789 -0.052179 
